/* XPM */
static char * player_xpm[] = {
"32 32 24 1",
" 	c #C0E7B5",
".	c #A5CC9E",
"+	c #2E222F",
"@	c #966C6C",
"#	c #E6904E",
"$	c #CD683D",
"%	c #9E4539",
"&	c #753C54",
"*	c #7A3045",
"=	c #A24B6F",
"-	c #F57D4A",
";	c #FBB954",
">	c #FDCBB0",
",	c #6E2727",
"'	c #AB947A",
")	c #FFFFFF",
"!	c #FCA790",
"~	c #45293F",
"{	c #F9C22B",
"]	c #CDDF6C",
"^	c #D5E04B",
"/	c #694F62",
"(	c #4C3E24",
"_	c #3E3546",
" . . .........  . ++++++. ... . ",
" .   . .      ...+@##$$%++..  . ",
"    .          .+$$##$$$@&+.....",
"                +##*+++%==%+....",
".               +%%+...+&$%+....",
"        +++++++  +++....+*$&+.. ",
".     ++%$$@@%&++........+$%+...",
".    +=#$$$$$$%%%++......++==+ .",
"    +%##$$$$$$$%%%&+......+--+..",
"    +;##$$$$$$$$%%%+......+$$+  ",
"   +#>>###>>;;$$%%%&++.....+-%+ ",
".  +;>>;>>>>>>>$%%%&##+....+-%+.",
".  +#&+$;$$,$>>$#%>>>;'+...+#%+ ",
".  +#+)=$*+)$#>$#%#&&#;+...+#$+.",
"...+#++#@#++!#>$%%,~##{+...+##+ ",
"  . +!+>;#++';>$%,#~;##+++ +##+ ",
"....+;;>>;;;;;$%%~##;#++&&+#@@+.",
" ...+;&;,;;;%%%%*+%;#+=%%%&+%@+.",
"....+>>>>>;;>@%%+++++%%=%=%+%&+ ",
". ..+#>]^>>#$%/++&%=&&&%%==&++ .",
".....+$$=@@$#++~&$##%%+++%=%++  ",
" .....+;>>;#+%**%##$&++##==%+   ",
"......++++++%%*+&$#$&+##%%=%+   ",
"  ...+%***+++&&&+$##&+=#=%+(+  .",
" ...+,%%%++.++%%+$#@%_&$===++  .",
"..++,##&%+...++%+$#$&++@===/+ ..",
".+>>!;;#++.....+###&++++++~%+  .",
".+;+!%+;+....++$##%@++######+   ",
" +$+$++#+...+>>>{##+ +##+>#+   .",
"..++++.+....+;+;*;#+  +++++     ",
"............+'+'~#+   ...   . ..",
".  ...... . .+++++  . .   ...  ."};
