/* XPM */
static char * wall_xpm[] = {
"32 32 15 1",
" 	c #C0E7B5",
".	c #A5CC9E",
"+	c #9280B1",
"@	c #7858D4",
"#	c #8B58E1",
"$	c #5825CC",
"%	c #C77673",
"&	c #9E4AFF",
"*	c #74AB73",
"=	c #518B50",
"-	c #4C6B4C",
";	c #467E37",
">	c #53823A",
",	c #505417",
"'	c #64812B",
" . . .........  . .    .. ... . ",
" .   . .      ......... . ..  . ",
"    .          . ...............",
"                .. .............",
".                 ..............",
"                 .............. ",
".               ................",
".              ............... .",
"                . ..............",
"               +@+............  ",
"               @#@$...........  ",
".              $@+@.............",
".              %#&%............ ",
".              @+@$.......... ..",
"...     . .    $$#@............ ",
"  .     .  ... @&+@.. .. . ...  ",
".....    ...  @+&%$  ..     .  .",
" ...     .....$@$#@  .    *==- .",
"..............%#@+@     *==;- . ",
". ............@+$@$    *=>;-   .",
"..............$@,$@   *=>;;     ",
" .............@$@$   *=>>;-     ",
"...............$$.  *=>>;-      ",
"  ............. ,  *=>>;-      .",
" .............. ' *=>>;-       .",
"................'*=>>;-       ..",
"............... '=>>;-         .",
"............... ,=>;-           ",
"  ............. ,;;-           .",
"................>               ",
"..............   .    ...   . ..",
".  ...... . . . ..  . .   ...  ."};
