/* XPM */
static char * collectable_xpm[] = {
"32 32 13 1",
" 	c #C0E7B5",
".	c #A5CC9E",
"+	c #332C1F",
"@	c #8C4423",
"#	c #99622E",
"$	c #304039",
"%	c #95DFE5",
"&	c #79B6F2",
"*	c #CCE1FF",
"=	c #FF82EA",
"-	c #E61990",
";	c #BD2054",
">	c #8FB3AC",
" . . .........  . .    .. ... . ",
" .   . .      ......... . ..  . ",
"    .          . ...............",
"              ++++ .............",
".            +@##@+.............",
"            $+@##@+$........... ",
".          $%+@##@+%$...........",
".          $&%++++%&$......... .",
"            $&%%%%&$............",
"             $$%%$$...........  ",
"              $&&$............  ",
".             $&&$..............",
".             $&&$............. ",
".            $&**&$.......... ..",
"...     . . $*=-=-&$........... ",
"  .     .  $%=-=-=-%$ .. . ...  ",
".....    .$%=-=-=-=-%$.     .  .",
" ...     $%=-*-=-=-=-%$    .   .",
".........$*-*--------%$       . ",
". .......$*----------&$        .",
".........$&-*--------&$         ",
" ........$%----------%$         ",
".........$%----------%$         ",
"  .......$&----------&$        .",
" ........$&-;;;;;;;;-&$        .",
".........$>;;;;;;;;;;>$       ..",
"..........$>;;;;;;;;>$         .",
"...........$>;;;;;;>$           ",
"  ..........$>>>>>>$           .",
".............$$$$$$             ",
"..............   .    ...   . ..",
".  ...... . . . ..  . .   ...  ."};
