/* XPM */
static char * exit_open_xpm[] = {
"32 32 9 1",
" 	c #C0E7B5",
".	c #A5CC9E",
"+	c #F2DE14",
"@	c #E4CD09",
"#	c #D7B505",
"$	c #60483B",
"%	c #43251E",
"&	c #4A2C25",
"*	c #4C322C",
" . . .........  . .    .. ... . ",
" .   +++     ++......+++. ..  . ",
"    +++++++++++++...+++++++.....",
"    ++++++@+++#@+++++++@+++.....",
".  +++++@@#++++@+++++##@@#+.++..",
"   ++#@###++@@@######@@@@@++#++ ",
". +++@@@++@@++@+++@@@@@##@@@#@+.",
". +#@@@###@@@##+@#++@#@@@###@@+.",
"  +@###+++@+++###@###++@@@+++++.",
" ++++@@@@+++@@@@@@@+@+++++@#+++ ",
" +@+@+@##+++++@##@##+@@@####@#@ ",
".+@@@++@++$%+###@#+++++@@@+++@..",
". @@@@#####@%@++@++@&%++#@@@@+. ",
".  #@@+++@@@&##@@@#%@###@@@###..",
"...##@@+++@# %###.&%@@@@@#+++.. ",
"  .#+@# @$%#.& ##&%.@@@@+++@++  ",
"....#    ++%#*%..&@@@+@@###@@@ .",
" ... + +++@@%**%%& #@#+++ ##@# .",
"....+++++@@###$&%%###%@%++ ###. ",
". ..@@@@@###...*&%&&%###@++    .",
".....##.###...**&%  ## ###+     ",
" .............**%%              ",
".............**&%.              ",
"  ...........**&%              .",
" ............**&%              .",
".............*&%              ..",
".............**&%.             .",
".............**&%               ",
"  ...........**&%              .",
"..............*&%               ",
"..............**&%    ...   . ..",
".  ...... . .*&%%%% . .   ...  ."};
