/* XPM */
static char * floor_xpm[] = {
"32 32 2 1",
" 	c #C0E7B5",
".	c #A5CC9E",
" . . .........  . .    .. ... . ",
" .   . .      ......... . ..  . ",
"    .          . ...............",
"                .. .............",
".                 ..............",
"                 .............. ",
".               ................",
".              ............... .",
"                . ..............",
"               . .............  ",
"                ..............  ",
".              .................",
".               ............... ",
".              .............. ..",
"...     . .      .............. ",
"  .     .  ...     .. .. . ...  ",
".....    ...  .....  ..     .  .",
" ...     ..... ...   .     .   .",
"............... .             . ",
". ...............              .",
".............. ..               ",
" ................               ",
"..................              ",
"  .............                .",
" ..............                .",
"................              ..",
"............... ..             .",
"............... .               ",
"  ............. .              .",
"................                ",
"..............   .    ...   . ..",
".  ...... . . . ..  . .   ...  ."};
